<?xml version="1.0" encoding="UTF-8" standalone="no"?>
<svg width="139px" height="32px" viewBox="0 0 139 32" version="1.1"
    xmlns="http://www.w3.org/2000/svg"
    xmlns:xlink="http://www.w3.org/1999/xlink"
    xmlns:sketch="http://www.bohemiancoding.com/sketch/ns">
    <g id="Page-1" stroke="none" stroke-width="1" fill="none" fill-rule="evenodd" sketch:type="MSPage">
        <g id="logo-dark" sketch:type="MSLayerGroup">
            <path d="M26.8622917,16.2352941 C26.8622917,10.1276742 21.9039332,5.17647059 15.7874872,5.17647059 C9.67104132,5.17647059 4.71268276,10.1276742 4.71268276,16.2352941 C4.71268276,22.342914 9.67104132,27.2941176 15.7874872,27.2941176 C21.9039332,27.2941176 26.8622917,22.342914 26.8622917,16.2352941 Z M18.5561884,16.2352941 C18.5561884,14.7083891 17.3165987,13.4705882 15.7874872,13.4705882 C14.2583758,13.4705882 13.0187861,14.7083891 13.0187861,16.2352941 C13.0187861,17.7621991 14.2583758,19 15.7874872,19 C17.3165987,19 18.5561884,17.7621991 18.5561884,16.2352941 Z" id="Oval-1" fill="#404040" sketch:type="MSShapeGroup"></path>
            <path d="M32.0155255,32 L16.0077627,32 L1.4501806,32 L0,32 L7.88746468e-10,30.555242 L8.70655263e-09,16.0520946 L0,0.104189277 L15.9519866,0.104189277 L15.9519866,2.99381269 C8.73862471,3.02375987 2.9003612,8.8586765 2.9003612,16.0520946 L2.9003612,29.110484 L16.0077627,29.110484 C23.2467811,29.110484 29.1151643,23.2640444 29.1151643,16.0520946 C29.1151643,16.0335631 32.0154303,15.996527 32.0154303,15.996527 C32.0154937,16.0150421 32.0155255,32 32.0155255,32 Z" id="Oval-3-copy" fill="#404040" sketch:type="MSShapeGroup"></path>
            <path d="M49.2197101,7.85275362 C50.3597352,7.85275362 51.3601503,8.0156119 52.2209855,8.34133333 C53.0818207,8.66705477 53.8088666,9.19052779 54.4021449,9.91176812 C54.9954233,10.6330084 55.4432835,11.5694435 55.7457391,12.7211014 C56.0481947,13.8727594 56.1994203,15.2745038 56.1994203,16.9263768 C56.1994203,18.5782498 56.0481947,19.9799942 55.7457391,21.1316522 C55.4432835,22.2833101 54.9954233,23.2197452 54.4021449,23.9409855 C53.8088666,24.6622258 53.0818207,25.1856989 52.2209855,25.5114203 C51.3601503,25.8371417 50.3597352,26 49.2197101,26 C48.0796851,26 47.07927,25.8371417 46.2184348,25.5114203 C45.3575996,25.1856989 44.6305537,24.6622258 44.0372754,23.9409855 C43.443997,23.2197452 42.9961368,22.2833101 42.6936812,21.1316522 C42.3912255,19.9799942 42.24,18.5782498 42.24,16.9263768 C42.24,15.2745038 42.3912255,13.8727594 42.6936812,12.7211014 C42.9961368,11.5694435 43.443997,10.6330084 44.0372754,9.91176812 C44.6305537,9.19052779 45.3575996,8.66705477 46.2184348,8.34133333 C47.07927,8.0156119 48.0796851,7.85275362 49.2197101,7.85275362 Z M49.2197101,10.1211594 C48.8241913,10.1211594 48.4577601,10.2200377 48.1204058,10.4177971 C47.7830515,10.6155565 47.4864167,10.9703549 47.2304928,11.4822029 C46.9745688,11.9940509 46.7768123,12.6920149 46.6372174,13.5761159 C46.4976225,14.460217 46.4278261,15.5769594 46.4278261,16.9263768 C46.4278261,18.2757942 46.4976225,19.3925366 46.6372174,20.2766377 C46.7768123,21.1607387 46.9745688,21.8587028 47.2304928,22.3705507 C47.4864167,22.8823987 47.7830515,23.2371971 48.1204058,23.4349565 C48.4577601,23.632716 48.8241913,23.7315942 49.2197101,23.7315942 C49.615229,23.7315942 49.9816601,23.632716 50.3190145,23.4349565 C50.6563688,23.2371971 50.9530036,22.8823987 51.2089275,22.3705507 C51.4648515,21.8587028 51.662608,21.1607387 51.8022029,20.2766377 C51.9417978,19.3925366 52.0115942,18.2757942 52.0115942,16.9263768 C52.0115942,15.5769594 51.9417978,14.460217 51.8022029,13.5761159 C51.662608,12.6920149 51.4648515,11.9940509 51.2089275,11.4822029 C50.9530036,10.9703549 50.6563688,10.6155565 50.3190145,10.4177971 C49.9816601,10.2200377 49.615229,10.1211594 49.2197101,10.1211594 Z M62.1546891,25.6510145 L57.0943992,8.20173913 L61.2822253,8.20173913 L64.7022833,21.2886957 L64.8418775,21.2886957 L68.2619355,8.20173913 L72.4497615,8.20173913 L67.3894717,25.6510145 L62.1546891,25.6510145 Z M86.6061898,18.1478261 L77.5325666,18.1478261 C77.5325666,20.1486863 77.887365,21.5504308 78.5969724,22.3531014 C79.3065798,23.1557721 80.4058731,23.5571014 81.8948854,23.5571014 L85.733726,23.5571014 L85.733726,25.302029 C85.1986122,25.4881555 84.52973,25.6510138 83.7270593,25.7906087 C82.9243886,25.9302036 82.0810154,26 81.1969144,26 C79.847497,26 78.6784073,25.8371417 77.68961,25.5114203 C76.7008128,25.1856989 75.8865215,24.6622258 75.2467115,23.9409855 C74.6069015,23.2197452 74.1299594,22.2833101 73.8158709,21.1316522 C73.5017824,19.9799942 73.3447405,18.5782498 73.3447405,16.9263768 C73.3447405,15.2745038 73.495966,13.8727594 73.7984216,12.7211014 C74.1008773,11.5694435 74.5312884,10.6330084 75.089668,9.91176812 C75.6480476,9.19052779 76.3401953,8.66705477 77.1661318,8.34133333 C77.9920683,8.0156119 78.9285034,7.85275362 79.9754651,7.85275362 C81.0224269,7.85275362 81.958862,8.0156119 82.7847985,8.34133333 C83.6107349,8.66705477 84.3028826,9.19052779 84.8612622,9.91176812 C85.4196418,10.6330084 85.850053,11.5694435 86.1525086,12.7211014 C86.4549642,13.8727594 86.6061898,15.2745038 86.6061898,16.9263768 L86.6061898,18.1478261 Z M82.4183637,15.7049275 C82.4183637,14.5649025 82.3543836,13.6342838 82.2264216,12.9130435 C82.0984596,12.1918032 81.929785,11.6217992 81.7203927,11.2030145 C81.5110003,10.7842298 81.2550802,10.4992278 80.9526245,10.348 C80.6501689,10.1967722 80.3244524,10.1211594 79.9754651,10.1211594 C79.6264779,10.1211594 79.3007613,10.1967722 78.9983057,10.348 C78.6958501,10.4992278 78.4399299,10.7842298 78.2305376,11.2030145 C78.0211452,11.6217992 77.8524706,12.1918032 77.7245086,12.9130435 C77.5965466,13.6342838 77.5325666,14.5649025 77.5325666,15.7049275 L82.4183637,15.7049275 Z M99.5411687,8.20173913 L99.5411687,11.1681159 L95.7023281,11.1681159 C95.2602776,11.1681159 94.8763974,11.2379123 94.5506759,11.3775072 C94.2249545,11.5171021 93.9690344,11.6799604 93.7829078,11.866087 L93.7829078,25.6510145 L89.5950817,25.6510145 L89.5950817,8.20173913 L92.5614585,8.20173913 L93.0849368,9.59768116 L93.2594296,9.59768116 C93.6316826,9.24869391 94.1318902,8.92879372 94.7600672,8.63797101 C95.3882443,8.3471483 96.2258011,8.20173913 97.2727629,8.20173913 L99.5411687,8.20173913 Z M106.250696,25.6510145 L101.190407,8.20173913 L105.378233,8.20173913 L108.798291,21.2886957 L108.937885,21.2886957 L112.357943,8.20173913 L116.545769,8.20173913 L111.485479,25.6510145 L106.250696,25.6510145 Z M123.024516,25.6510145 L118.83669,25.6510145 L118.83669,8.20173913 L123.024516,8.20173913 L123.024516,25.6510145 Z M123.024516,1.92 L123.024516,6.10782609 L118.83669,6.10782609 L118.83669,1.92 L123.024516,1.92 Z M130.026741,12.3895652 C130.026741,12.9944765 130.230314,13.4888676 130.637466,13.8727536 C131.044618,14.2566396 131.550642,14.5939889 132.155553,14.8848116 C132.760464,15.1756343 133.417714,15.4606363 134.127321,15.7398261 C134.836928,16.0190159 135.494178,16.3621815 136.099089,16.7693333 C136.704,17.1764851 137.210024,17.6999582 137.617176,18.3397681 C138.024328,18.9795781 138.227901,19.7880531 138.227901,20.7652174 C138.227901,21.8121791 138.076675,22.6730015 137.77422,23.3477101 C137.471764,24.0224188 137.006455,24.5575246 136.378278,24.9530435 C135.7501,25.3485624 134.964891,25.6219316 134.022625,25.7731594 C133.08036,25.9243872 131.981066,26 130.724712,26 C129.840611,26 128.997238,25.9302036 128.194567,25.7906087 C127.391897,25.6510138 126.723015,25.4881555 126.187901,25.302029 L126.187901,23.5571014 L130.026741,23.5571014 C131.352893,23.5571014 132.353308,23.3709777 133.028017,22.9987246 C133.702725,22.6264716 134.040075,21.9983039 134.040075,21.1142029 C134.040075,20.5092917 133.836502,20.0149005 133.42935,19.6310145 C133.022198,19.2471285 132.516174,18.9097792 131.911263,18.6189565 C131.306352,18.3281338 130.649102,18.0431318 129.939495,17.763942 C129.229888,17.4847522 128.572638,17.1415866 127.967727,16.7344348 C127.362816,16.327283 126.856792,15.8096263 126.44964,15.1814493 C126.042488,14.5532722 125.838915,13.7389808 125.838915,12.7385507 C125.838915,11.7846522 125.990141,10.9936263 126.292596,10.3654493 C126.595052,9.73727222 127.03128,9.23706466 127.601292,8.86481159 C128.171305,8.49255853 128.880901,8.23082201 129.730104,8.0795942 C130.579306,7.92836639 131.550639,7.85275362 132.644133,7.85275362 C133.528234,7.85275362 134.371607,7.92255003 135.174278,8.06214493 C135.976948,8.20173983 136.64583,8.3645981 137.180944,8.55072464 L137.180944,10.2956522 L133.342104,10.2956522 C132.364939,10.2956522 131.568097,10.4701432 130.951553,10.8191304 C130.335009,11.1681177 130.026741,11.6915907 130.026741,12.3895652 Z" id="overvis" fill="#404040" sketch:type="MSShapeGroup"></path>
        </g>
    </g>
</svg>