<?xml version="1.0" encoding="UTF-8"?>
<!DOCTYPE svg PUBLIC "-//W3C//DTD SVG 1.1//EN" "http://www.w3.org/Graphics/SVG/1.1/DTD/svg11.dtd">
<!-- Creator: CorelDRAW X6 -->
<svg xmlns="http://www.w3.org/2000/svg" xml:space="preserve" width="84mm" height="68mm" version="1.1" style="shape-rendering:geometricPrecision; text-rendering:geometricPrecision; image-rendering:optimizeQuality; fill-rule:evenodd; clip-rule:evenodd"
viewBox="0 0 8400 6800"
 xmlns:xlink="http://www.w3.org/1999/xlink">
 <defs>
  <style type="text/css">
   <![CDATA[
    .str0 {stroke:black;stroke-width:20;stroke-linejoin:bevel}
    .str2 {stroke:black;stroke-width:34.99;stroke-linejoin:bevel}
    .str1 {stroke:black;stroke-width:50;stroke-linejoin:bevel}
    .fil0 {fill:none}
    .fil2 {fill:#2B2A29;fill-rule:nonzero}
    .fil1 {fill:black;fill-rule:nonzero}
   ]]>
  </style>
 </defs>
 <g id="OPCB-221B">
  <metadata id="CorelCorpID_0Corel-Layer"/>
  <g id="_1020702480">
   <g>
    <line class="fil0 str0" x1="1090" y1="5089" x2="1090" y2= "2149" />
    <path class="fil0 str0" d="M1090 5089c0,40 16,78 44,106 28,28 66,44 106,44"/>
    <line class="fil0 str0" x1="7310" y1="5089" x2="7310" y2= "2149" />
    <path class="fil0 str0" d="M2740 4152c0,81 49,154 124,185"/>
    <path class="fil0 str0" d="M2864 4337c4,2 8,2 11,2"/>
    <line class="fil0 str0" x1="3425" y1="4339" x2="2875" y2= "4339" />
    <path class="fil0 str0" d="M3425 4339c4,0 8,-1 11,-2"/>
    <path class="fil0 str0" d="M3436 4337c75,-31 124,-104 124,-185"/>
    <line class="fil0 str0" x1="3560" y1="3989" x2="3560" y2= "4152" />
    <path class="fil0 str0" d="M3560 3989c0,-8 -3,-16 -9,-21 -6,-6 -13,-9 -21,-9"/>
    <line class="fil0 str0" x1="2770" y1="3959" x2="3530" y2= "3959" />
    <path class="fil0 str0" d="M2770 3959c-8,0 -16,3 -21,9 -6,6 -9,13 -9,21"/>
    <line class="fil0 str0" x1="2740" y1="4152" x2="2740" y2= "3989" />
    <path class="fil0 str0" d="M6210 4089c0,-83 -67,-150 -150,-150 -83,0 -150,67 -150,150 0,83 67,150 150,150 83,0 150,-67 150,-150z"/>
    <path class="fil0 str0" d="M4160 4679c0,8 3,16 9,21 6,6 13,9 21,9"/>
    <line class="fil0 str0" x1="5380" y1="4709" x2="4190" y2= "4709" />
    <path class="fil0 str0" d="M5380 4709c17,0 30,-13 30,-30"/>
    <line class="fil0 str0" x1="5410" y1="4519" x2="5410" y2= "4679" />
    <path class="fil0 str0" d="M5410 4519c0,-8 -3,-16 -9,-21 -6,-6 -13,-9 -21,-9"/>
    <line class="fil0 str0" x1="4190" y1="4489" x2="5380" y2= "4489" />
    <path class="fil0 str0" d="M4190 4489c-8,0 -16,3 -21,9 -6,6 -9,13 -9,21"/>
    <line class="fil0 str0" x1="4160" y1="4679" x2="4160" y2= "4519" />
    <path class="fil0 str0" d="M5510 4339c17,0 30,-13 30,-30"/>
    <line class="fil0 str0" x1="5540" y1="3949" x2="5540" y2= "4309" />
    <path class="fil0 str0" d="M5540 3949c0,-8 -3,-16 -9,-21 -6,-6 -13,-9 -21,-9"/>
    <line class="fil0 str0" x1="3910" y1="3919" x2="5510" y2= "3919" />
    <path class="fil0 str0" d="M3910 3919c-8,0 -16,3 -21,9 -6,6 -9,13 -9,21"/>
    <line class="fil0 str0" x1="3880" y1="4309" x2="3880" y2= "3949" />
    <path class="fil0 str0" d="M3880 4309c0,8 3,16 9,21 6,6 13,9 21,9"/>
    <line class="fil0 str0" x1="5510" y1="4339" x2="3910" y2= "4339" />
    <path class="fil0 str0" d="M7315 2052c0,-45 -53,-88 -146,-120 -94,-32 -221,-50 -354,-50"/>
    <path class="fil0 str0" d="M1585 1881c-133,0 -260,18 -354,50 -94,32 -146,75 -146,120"/>
    <line class="fil0 str0" x1="6815" y1="1881" x2="1585" y2= "1881" />
    <line class="fil0 str0" x1="7310" y1="2149" x2="1090" y2= "2149" />
    <path class="fil0 str0" d="M7160 5239c83,0 150,-67 150,-150"/>
    <line class="fil0 str0" x1="2110" y1="5239" x2="1155" y2= "5239" />
    <line class="fil0 str0" x1="7245" y1="5239" x2="6290" y2= "5239" />
   </g>
   <g>
    <path class="fil0 str1" d="M7315 1930c0,-45 -53,-88 -146,-120 -94,-32 -221,-50 -354,-50"/>
    <path class="fil0 str1" d="M1585 1759c-133,0 -260,18 -354,50 -94,32 -146,75 -146,120"/>
    <line class="fil0 str1" x1="6815" y1="1759" x2="1585" y2= "1759" />
    <line class="fil0 str1" x1="7315" y1="2052" x2="7315" y2= "1930" />
    <line class="fil0 str1" x1="7315" y1="2169" x2="7310" y2= "2169" />
    <line class="fil0 str1" x1="7315" y1="2169" x2="7315" y2= "2189" />
    <line class="fil0 str1" x1="7315" y1="2052" x2="7315" y2= "2144" />
    <line class="fil0 str1" x1="7315" y1="2169" x2="7315" y2= "2144" />
    <line class="fil0 str1" x1="7495" y1="4989" x2="7495" y2= "2869" />
    <line class="fil0 str1" x1="7495" y1="2869" x2="7315" y2= "2189" />
    <line class="fil0 str1" x1="1085" y1="2189" x2="905" y2= "2869" />
    <line class="fil0 str1" x1="905" y1="2869" x2="905" y2= "4989" />
    <line class="fil0 str1" x1="1085" y1="1930" x2="1085" y2= "2052" />
    <line class="fil0 str1" x1="1085" y1="2189" x2="1085" y2= "2169" />
    <line class="fil0 str1" x1="1085" y1="2144" x2="1085" y2= "2169" />
    <line class="fil0 str1" x1="1085" y1="2144" x2="1085" y2= "2052" />
    <line class="fil0 str1" x1="1090" y1="2169" x2="1085" y2= "2169" />
    <path class="fil0 str1" d="M905 4989c0,66 26,130 73,177 47,47 110,73 177,73"/>
    <line class="fil0 str1" x1="100" y1="5239" x2="100" y2= "5369" />
    <line class="fil0 str1" x1="300" y1="5239" x2="100" y2= "5239" />
    <line class="fil0 str1" x1="100" y1="5369" x2="300" y2= "5369" />
    <line class="fil0 str1" x1="1910" y1="5369" x2="2110" y2= "5369" />
    <line class="fil0 str1" x1="2110" y1="5239" x2="2110" y2= "5369" />
    <line class="fil0 str1" x1="300" y1="5239" x2="1155" y2= "5239" />
    <line class="fil0 str1" x1="1910" y1="5369" x2="300" y2= "5369" />
    <line class="fil0 str1" x1="6290" y1="5239" x2="6290" y2= "5369" />
    <line class="fil0 str1" x1="6290" y1="5369" x2="6490" y2= "5369" />
    <line class="fil0 str1" x1="7245" y1="5239" x2="8100" y2= "5239" />
    <line class="fil0 str1" x1="8100" y1="5369" x2="6490" y2= "5369" />
    <line class="fil0 str1" x1="8300" y1="5239" x2="8100" y2= "5239" />
    <line class="fil0 str1" x1="8100" y1="5369" x2="8300" y2= "5369" />
    <line class="fil0 str1" x1="8300" y1="5239" x2="8300" y2= "5369" />
    <path class="fil0 str1" d="M7245 5239c138,0 250,-112 250,-250"/>
    <line class="fil0 str1" x1="2110" y1="5239" x2="6290" y2= "5239" />
   </g>
  </g>
 </g>
 <g id="Выноски_x0020_линии">
  <metadata id="CorelCorpID_1Corel-Layer"/>
  <line class="fil0 str2" x1="5214" y1="4709" x2="6726" y2= "6646" />
  <line class="fil0 str2" x1="2919" y1="3959" x2="4157" y2= "723" />
  <line class="fil0 str2" x1="6159" y1="3976" x2="7269" y2= "725" />
  <line class="fil0 str2" x1="4121" y1="3919" x2="5285" y2= "725" />
  <line class="fil0 str2" x1="6726" y1="6646" x2="7514" y2= "6646" />
  <line class="fil0 str2" x1="4157" y1="723" x2="4825" y2= "723" />
  <line class="fil0 str2" x1="7269" y1="725" x2="7937" y2= "725" />
  <line class="fil0 str2" x1="5285" y1="725" x2="5953" y2= "725" />
 </g>
 <g id="Выноски_x0020_текст">
  <metadata id="CorelCorpID_2Corel-Layer"/>
  <path class="fil1" d="M7111 6111c-36,0 -59,17 -68,52l-9 35c-2,7 -3,14 -3,19 0,22 14,33 43,33l54 0 23 -87c1,-5 2,-10 2,-13 0,-12 -4,-21 -12,-28 -8,-7 -18,-11 -30,-11zm9 -35c18,0 34,8 47,23 14,15 21,32 21,50 0,5 -1,9 -2,14l-28 105c-23,84 -75,136 -158,156 -2,0 -3,0 -4,0 -5,0 -9,-2 -12,-5 -3,-3 -5,-8 -5,-12 0,-10 4,-15 12,-16 21,-3 40,-10 59,-22 34,-22 57,-50 67,-84l-52 0c-20,0 -36,-6 -50,-19 -13,-13 -20,-29 -20,-49 0,-7 1,-13 2,-19l9 -35c6,-21 13,-38 23,-50 18,-24 49,-37 91,-37z"/>
  <path class="fil1" d="M4466 466c36,0 59,-17 68,-52l9 -35c2,-7 3,-13 3,-19 0,-22 -14,-33 -43,-33l-54 0 -23 86c-1,5 -2,9 -2,13 0,12 4,21 12,28 8,7 18,11 30,11zm-9 35c-25,0 -44,-13 -59,-38 -6,-11 -9,-23 -9,-34 0,-5 1,-9 2,-14l28 -105c10,-39 28,-71 52,-97 27,-29 63,-49 106,-59 1,0 3,0 4,0 12,0 17,6 17,17 0,10 -4,15 -12,16 -19,3 -39,10 -58,22 -35,21 -58,49 -68,83l52 0c20,0 36,6 50,19 13,13 20,29 20,49 0,7 -1,13 -2,19l-9 35c-11,40 -31,66 -59,78 -14,6 -32,9 -54,9z"/>
  <path class="fil1" d="M7678 317c12,12 18,27 18,46 0,7 -1,13 -2,19l-9 35c-9,31 -22,53 -39,67 -18,13 -42,20 -74,20 -20,0 -37,-6 -50,-19 -13,-13 -20,-29 -20,-48 0,-7 1,-13 2,-19l9 -35c10,-37 27,-62 52,-74 -12,-13 -17,-28 -17,-46 0,-7 1,-14 2,-19 9,-31 22,-53 39,-67 17,-14 42,-20 74,-20 20,0 37,6 50,19 13,13 20,29 20,49 0,7 -1,13 -2,19 -11,37 -28,62 -52,74zm-60 13c-36,0 -59,17 -68,52l-9 35c-2,7 -3,13 -3,19 0,22 14,32 43,32 36,0 58,-17 68,-52l9 -35c2,-7 3,-13 3,-19 0,-22 -14,-33 -43,-33zm36 -139c-36,0 -58,17 -67,52 -2,7 -3,14 -3,19 0,22 14,33 43,33 36,0 59,-17 68,-52 2,-8 3,-14 3,-19 0,-22 -14,-33 -43,-33z"/>
  <path class="fil1" d="M5718 191l-102 0 -4 19c-3,12 -10,17 -21,15 -11,-4 -16,-12 -13,-24l6 -28c2,-12 8,-17 17,-17l144 0c12,0 17,6 17,17 0,3 -1,6 -2,8l-156 312c-2,4 -6,7 -10,9 -11,4 -19,0 -22,-11 -1,-4 -1,-9 1,-13l143 -287z"/>
 </g>
 <g id="Маркировка">
  <metadata id="CorelCorpID_3Corel-Layer"/>
  <polygon class="fil2" points="4523,4818 4523,5020 4560,5020 4560,4859 4561,4859 4597,5020 4628,5020 4664,4859 4665,4859 4665,5020 4702,5020 4702,4818 4642,4818 4613,4961 4612,4961 4583,4818 "/>
  <polygon id="1" class="fil2" points="4844,4818 4731,4818 4731,5020 4846,5020 4846,4987 4772,4987 4772,4932 4839,4932 4839,4899 4772,4899 4772,4852 4844,4852 "/>
  <polygon id="2" class="fil2" points="4868,4818 4868,5020 4905,5020 4905,4859 4905,4859 4941,5020 4973,5020 5009,4859 5009,4859 5009,5020 5047,5020 5047,4818 4986,4818 4957,4961 4957,4961 4928,4818 "/>
  <path class="fil2" d="M2973 4515l-41 0 0 141c0,14 2,25 5,33 4,8 8,15 14,20 6,5 13,8 21,9 8,2 16,2 24,2 8,0 16,-1 24,-3 8,-2 15,-5 21,-10 6,-5 11,-12 14,-20 4,-8 5,-19 5,-32l0 -141 -41 0 0 141c0,5 0,10 -1,14 -1,4 -2,8 -4,11 -2,3 -4,6 -7,7 -3,2 -7,3 -12,3 -5,0 -9,-1 -12,-3 -3,-2 -6,-4 -7,-7 -2,-3 -3,-7 -4,-11 -1,-4 -1,-9 -1,-14l0 -141z"/>
  <path id="1" class="fil2" d="M3120 4654l-41 0 0 8c0,19 5,33 15,43 10,10 26,15 49,15 22,0 39,-5 52,-15 12,-10 18,-25 18,-46 0,-6 -1,-12 -2,-17 -1,-5 -3,-10 -6,-14 -3,-4 -7,-8 -12,-12 -5,-4 -11,-7 -19,-11l-31 -14c-9,-4 -14,-7 -17,-12 -3,-4 -4,-9 -4,-16 0,-3 0,-6 1,-9 1,-3 2,-5 4,-7 2,-2 4,-4 7,-5 3,-1 7,-2 11,-2 8,0 14,3 17,8 3,5 5,13 5,22l39 0 0 -6c0,-10 -2,-18 -5,-25 -3,-7 -7,-13 -13,-17 -6,-4 -12,-8 -20,-10 -8,-2 -16,-3 -25,-3 -19,0 -35,5 -46,15 -11,10 -17,25 -17,45 0,8 1,16 3,22 2,6 5,12 10,17 4,5 10,9 17,13 7,4 14,7 23,10 7,2 12,4 17,7 5,2 8,5 11,7 3,3 5,6 6,9 1,3 2,7 2,12 0,8 -2,15 -7,19 -5,4 -11,6 -17,6 -5,0 -10,-1 -13,-2 -3,-2 -6,-4 -8,-6 -2,-3 -3,-6 -4,-10 -1,-4 -1,-8 -1,-13l0 -6z"/>
  <path id="2" class="fil2" d="M3274 4687l0 -61 18 0c5,0 9,0 12,1 4,1 7,3 10,5 3,2 5,5 6,9 2,4 2,9 2,15 0,12 -3,20 -9,24 -6,4 -14,6 -24,6l-16 0zm0 -89l0 -53 15 0c10,0 18,2 22,6 5,4 7,11 7,20 0,10 -3,16 -8,20 -5,4 -13,6 -25,6l-12 0zm-41 -83l0 202 69 0c12,0 22,-2 30,-5 8,-3 14,-7 19,-13 5,-5 9,-12 11,-19 2,-7 3,-15 3,-23 0,-14 -3,-24 -10,-32 -7,-8 -16,-13 -27,-14l0 -1c10,-3 18,-8 23,-16 5,-8 8,-17 8,-28 0,-10 -1,-18 -4,-24 -3,-7 -7,-12 -12,-16 -5,-4 -11,-7 -18,-8 -7,-2 -15,-3 -23,-3l-68 0z"/>
  <polygon class="fil2" points="4580,3615 4533,3615 4533,3817 4571,3817 4571,3676 4571,3676 4621,3817 4667,3817 4667,3615 4630,3615 4630,3753 4629,3753 "/>
  <path id="1" class="fil2" d="M4801 3615l-41 0 0 141c0,14 2,25 5,33 4,8 8,15 14,20 6,5 13,8 21,9 8,2 16,2 24,2 8,0 16,-1 24,-3 8,-2 15,-5 21,-10 6,-5 11,-12 14,-20 4,-8 5,-19 5,-32l0 -141 -41 0 0 141c0,5 0,10 -1,14 -1,4 -2,8 -4,11 -2,3 -4,6 -7,7 -3,2 -7,3 -12,3 -5,0 -9,-1 -12,-3 -3,-2 -6,-4 -7,-7 -2,-3 -3,-7 -4,-11 -1,-4 -1,-9 -1,-14l0 -141z"/>
  <path class="fil2" d="M5998 4508l0 202 41 0 0 -85 22 0c8,0 14,2 18,7 4,5 6,11 6,19l1 39c0,4 1,8 1,11 1,4 2,7 4,10l44 0 0 -2c-4,-2 -6,-6 -7,-12 -1,-6 -1,-14 -2,-25 0,-5 0,-10 -1,-15 0,-4 0,-9 -1,-12 -1,-11 -4,-19 -9,-25 -5,-5 -12,-8 -22,-10l0 -1c11,-2 20,-8 25,-17 5,-9 8,-20 8,-33 0,-17 -5,-31 -14,-39 -9,-9 -23,-13 -40,-13l-75 0zm41 88l0 -58 19 0c19,0 28,9 28,28 0,11 -3,19 -8,23 -5,5 -13,7 -23,7l-17 0z"/>
  <path class="fil2" d="M2976 4916c0,-14 0,-25 1,-34 1,-9 2,-17 4,-23 2,-6 5,-10 8,-13 4,-3 9,-4 15,-4 6,0 11,1 15,4 4,3 6,7 8,13 2,6 3,14 4,23 1,9 1,21 1,34 0,14 0,25 -1,35 -1,10 -2,17 -4,23 -2,6 -5,10 -8,13 -4,3 -9,4 -15,4 -6,0 -11,-1 -15,-4 -4,-3 -6,-7 -8,-13 -2,-6 -3,-14 -4,-23 -1,-10 -1,-21 -1,-35zm-41 0c0,15 1,30 2,42 1,13 5,24 9,33 5,9 12,16 21,21 9,5 21,7 36,7 15,0 27,-2 36,-7 9,-5 16,-12 21,-21 5,-9 8,-20 9,-33 1,-13 2,-27 2,-42 0,-15 -1,-29 -2,-42 -1,-13 -5,-24 -9,-33 -5,-9 -12,-16 -21,-22 -9,-5 -21,-8 -36,-8 -15,0 -27,3 -36,8 -9,5 -16,12 -21,22 -5,9 -8,20 -9,33 -1,13 -2,27 -2,42z"/>
  <polygon id="1" class="fil2" points="3214,4815 3086,4815 3086,4849 3130,4849 3130,5017 3170,5017 3170,4849 3214,4849 "/>
  <path id="2" class="fil2" d="M3321 4875l39 0c0,-21 -5,-36 -15,-47 -10,-11 -26,-17 -48,-17 -13,0 -24,2 -32,6 -9,4 -16,11 -21,19 -5,9 -9,19 -11,32 -2,13 -3,28 -3,45 0,18 1,33 2,46 2,13 4,24 9,33 4,9 11,16 18,20 8,4 18,6 30,6 10,0 18,-2 25,-5 7,-3 13,-9 18,-17l1 0 0 19 30 0 0 -109 -66 0 0 30 27 0 0 21c0,5 -1,10 -3,14 -2,4 -4,7 -6,10 -3,3 -5,5 -8,6 -3,1 -6,2 -8,2 -6,0 -11,-2 -14,-6 -4,-4 -6,-9 -8,-16 -2,-7 -3,-15 -4,-25 -1,-10 -1,-21 -1,-33 0,-25 2,-43 6,-54 4,-11 11,-16 21,-16 4,0 8,1 11,3 3,2 5,5 7,8 2,3 3,7 4,11 1,4 1,8 1,12z"/>
 </g>
</svg>
