<svg viewBox="0 0 90 100" xmlns="http://www.w3.org/2000/svg" xml:space="preserve" style="fill-rule:evenodd;clip-rule:evenodd;stroke-linecap:round;stroke-miterlimit:1"><path d="M78.778 9.756c0-1.156-1.046-2.094-2.335-2.094l-9.806.083v81.247l9.806.083c1.289 0 2.335-.938 2.335-2.094v-9.424s-6.726-14.102-6.726-29.193c0-15.1 6.726-28.89 6.726-28.89V9.756Z" style="fill:#60b49f" transform="matrix(.98779 0 0 1.10138 9.758 -1.129)"/><path d="M78.778 9.756c0-1.156-1.046-2.094-2.335-2.094l-9.806.083v81.247l9.806.083c1.289 0 2.335-.938 2.335-2.094v-9.424s-6.726-14.102-6.726-29.193c0-15.1 6.726-28.89 6.726-28.89V9.756Z" style="fill:#60b49f" transform="matrix(-.98779 0 0 1.10138 80.58 -1.102)"/><path d="M67.838 2.388s-12.426-5.31-27.43-5.31c-14.947 0-27.473 5.31-27.473 5.31v87.904h54.903V2.388Z" style="fill:#60b49f" transform="matrix(1.10733 0 0 1.0427 .44 4.219)"/><circle cx="8.418" cy="14.043" r="1.866" style="fill:none;stroke:#fff;stroke-width:.5px" transform="matrix(1.10733 0 0 1.10733 -.622 -2.74)"/><circle cx="8.418" cy="14.043" r="1.866" style="fill:none;stroke:#fff;stroke-width:.39px" transform="matrix(1.43669 0 0 1.43669 33.296 -6.234)"/><path d="M40.592 12.626v3" style="fill:none;stroke:#fff;stroke-width:.5px;stroke-linecap:butt" transform="matrix(1.10733 0 0 1.10733 .444 -1.744)"/><path d="M40.592 12.626v3" style="fill:none;stroke:#fff;stroke-width:.5px;stroke-linecap:butt" transform="matrix(0 1.10733 -1.10733 0 61.035 -31.051)"/><circle cx="8.418" cy="14.043" r="1.866" style="fill:none;stroke:#fff;stroke-width:.5px" transform="matrix(1.10733 0 0 1.10733 72.772 -2.772)"/><circle cx="8.418" cy="14.043" r="1.866" style="fill:none;stroke:#fff;stroke-width:.5px" transform="matrix(1.10733 0 0 1.10733 -.622 75.88)"/><circle cx="8.418" cy="14.043" r="1.866" style="fill:none;stroke:#fff;stroke-width:.5px" transform="matrix(1.10733 0 0 1.10733 72.772 75.848)"/><circle cx="18.634" cy="23.073" r=".635" style="fill:#fff" transform="translate(-3.826 -6.47) scale(1.32249)"/><circle cx="18.634" cy="23.073" r=".635" style="fill:#fff" transform="translate(.308 -6.44) scale(1.32249)"/><circle cx="18.634" cy="23.073" r=".635" style="fill:#fff" transform="translate(4.397 -6.44) scale(1.32249)"/><circle cx="18.634" cy="23.073" r=".635" style="fill:#fff" transform="translate(8.528 -6.429) scale(1.32249)"/><circle cx="18.634" cy="23.073" r=".635" style="fill:#fff" transform="translate(12.565 -6.47) scale(1.32249)"/><circle cx="18.634" cy="23.073" r=".635" style="fill:#fff" transform="translate(16.698 -6.44) scale(1.32249)"/><circle cx="18.634" cy="23.073" r=".635" style="fill:#fff" transform="translate(20.788 -6.44) scale(1.32249)"/><circle cx="18.634" cy="23.073" r=".635" style="fill:#fff" transform="translate(24.919 -6.429) scale(1.32249)"/><circle cx="18.634" cy="23.073" r=".635" style="fill:#fff" transform="translate(28.967 -6.412) scale(1.32249)"/><circle cx="18.634" cy="23.073" r=".635" style="fill:#fff" transform="translate(33.003 -6.453) scale(1.32249)"/><circle cx="18.634" cy="23.073" r=".635" style="fill:#fff" transform="translate(37.137 -6.423) scale(1.32249)"/><circle cx="18.634" cy="23.073" r=".635" style="fill:#fff" transform="translate(41.226 -6.423) scale(1.32249)"/><circle cx="18.634" cy="23.073" r=".635" style="fill:#fff" transform="translate(45.358 -6.412) scale(1.32249)"/><circle cx="18.634" cy="23.073" r=".635" style="fill:#fff" transform="translate(-3.855 -.33) scale(1.32249)"/><circle cx="18.634" cy="23.073" r=".635" style="fill:#fff" transform="translate(.279 -.3) scale(1.32249)"/><circle cx="18.634" cy="23.073" r=".635" style="fill:#fff" transform="translate(4.368 -.3) scale(1.32249)"/><circle cx="18.634" cy="23.073" r=".635" style="fill:#fff" transform="translate(8.5 -.29) scale(1.32249)"/><circle cx="18.634" cy="23.073" r=".635" style="fill:#fff" transform="translate(12.536 -.33) scale(1.32249)"/><circle cx="18.634" cy="23.073" r=".635" style="fill:#fff" transform="translate(16.67 -.3) scale(1.32249)"/><circle cx="18.634" cy="23.073" r=".635" style="fill:#fff" transform="translate(20.759 -.3) scale(1.32249)"/><circle cx="18.634" cy="23.073" r=".635" style="fill:#fff" transform="translate(24.89 -.29) scale(1.32249)"/><circle cx="18.634" cy="23.073" r=".635" style="fill:#fff" transform="translate(28.938 -.273) scale(1.32249)"/><circle cx="18.634" cy="23.073" r=".635" style="fill:#fff" transform="translate(32.974 -.314) scale(1.32249)"/><circle cx="18.634" cy="23.073" r=".635" style="fill:#fff" transform="translate(37.108 -.283) scale(1.32249)"/><circle cx="18.634" cy="23.073" r=".635" style="fill:#fff" transform="translate(41.197 -.283) scale(1.32249)"/><circle cx="18.634" cy="23.073" r=".635" style="fill:#fff" transform="translate(45.329 -.273) scale(1.32249)"/><circle cx="18.634" cy="23.073" r=".635" style="fill:#fff" transform="translate(-1.707 -3.31) scale(1.32249)"/><circle cx="18.634" cy="23.073" r=".635" style="fill:#fff" transform="translate(2.382 -3.31) scale(1.32249)"/><circle cx="18.634" cy="23.073" r=".635" style="fill:#fff" transform="translate(6.514 -3.3) scale(1.32249)"/><circle cx="18.634" cy="23.073" r=".635" style="fill:#fff" transform="translate(10.55 -3.34) scale(1.32249)"/><circle cx="18.634" cy="23.073" r=".635" style="fill:#fff" transform="translate(14.683 -3.31) scale(1.32249)"/><circle cx="18.634" cy="23.073" r=".635" style="fill:#fff" transform="translate(18.773 -3.31) scale(1.32249)"/><circle cx="18.634" cy="23.073" r=".635" style="fill:#fff" transform="translate(22.904 -3.3) scale(1.32249)"/><circle cx="18.634" cy="23.073" r=".635" style="fill:#fff" transform="translate(26.952 -3.282) scale(1.32249)"/><circle cx="18.634" cy="23.073" r=".635" style="fill:#fff" transform="translate(30.988 -3.324) scale(1.32249)"/><circle cx="18.634" cy="23.073" r=".635" style="fill:#fff" transform="translate(35.122 -3.293) scale(1.32249)"/><circle cx="18.634" cy="23.073" r=".635" style="fill:#fff" transform="translate(39.211 -3.293) scale(1.32249)"/><circle cx="18.634" cy="23.073" r=".635" style="fill:#fff" transform="translate(43.343 -3.282) scale(1.32249)"/><circle cx="18.634" cy="23.073" r=".635" style="fill:#fff" transform="translate(-3.715 5.838) scale(1.32249)"/><circle cx="18.634" cy="23.073" r=".635" style="fill:#fff" transform="translate(.418 5.869) scale(1.32249)"/><circle cx="18.634" cy="23.073" r=".635" style="fill:#fff" transform="translate(4.508 5.869) scale(1.32249)"/><circle cx="18.634" cy="23.073" r=".635" style="fill:#fff" transform="translate(8.639 5.88) scale(1.32249)"/><circle cx="18.634" cy="23.073" r=".635" style="fill:#fff" transform="translate(12.675 5.838) scale(1.32249)"/><circle cx="18.634" cy="23.073" r=".635" style="fill:#fff" transform="translate(16.809 5.869) scale(1.32249)"/><circle cx="18.634" cy="23.073" r=".635" style="fill:#fff" transform="translate(20.898 5.869) scale(1.32249)"/><circle cx="18.634" cy="23.073" r=".635" style="fill:#fff" transform="translate(25.03 5.88) scale(1.32249)"/><circle cx="18.634" cy="23.073" r=".635" style="fill:#fff" transform="translate(29.078 5.897) scale(1.32249)"/><circle cx="18.634" cy="23.073" r=".635" style="fill:#fff" transform="translate(33.114 5.856) scale(1.32249)"/><circle cx="18.634" cy="23.073" r=".635" style="fill:#fff" transform="translate(37.247 5.886) scale(1.32249)"/><circle cx="18.634" cy="23.073" r=".635" style="fill:#fff" transform="translate(41.337 5.886) scale(1.32249)"/><circle cx="18.634" cy="23.073" r=".635" style="fill:#fff" transform="translate(45.468 5.897) scale(1.32249)"/><circle cx="18.634" cy="23.073" r=".635" style="fill:#fff" transform="translate(-3.745 11.978) scale(1.32249)"/><circle cx="18.634" cy="23.073" r=".635" style="fill:#fff" transform="translate(.39 12.008) scale(1.32249)"/><circle cx="18.634" cy="23.073" r=".635" style="fill:#fff" transform="translate(4.479 12.008) scale(1.32249)"/><circle cx="18.634" cy="23.073" r=".635" style="fill:#fff" transform="translate(8.61 12.019) scale(1.32249)"/><circle cx="18.634" cy="23.073" r=".635" style="fill:#fff" transform="translate(12.646 11.978) scale(1.32249)"/><circle cx="18.634" cy="23.073" r=".635" style="fill:#fff" transform="translate(16.78 12.008) scale(1.32249)"/><circle cx="18.634" cy="23.073" r=".635" style="fill:#fff" transform="translate(20.87 12.008) scale(1.32249)"/><circle cx="18.634" cy="23.073" r=".635" style="fill:#fff" transform="translate(25 12.019) scale(1.32249)"/><circle cx="18.634" cy="23.073" r=".635" style="fill:#fff" transform="translate(29.049 12.036) scale(1.32249)"/><circle cx="18.634" cy="23.073" r=".635" style="fill:#fff" transform="translate(33.085 11.995) scale(1.32249)"/><circle cx="18.634" cy="23.073" r=".635" style="fill:#fff" transform="translate(37.218 12.025) scale(1.32249)"/><circle cx="18.634" cy="23.073" r=".635" style="fill:#fff" transform="translate(41.308 12.025) scale(1.32249)"/><circle cx="18.634" cy="23.073" r=".635" style="fill:#fff" transform="translate(45.44 12.036) scale(1.32249)"/><circle cx="18.634" cy="23.073" r=".635" style="fill:#fff" transform="translate(-1.597 8.998) scale(1.32249)"/><circle cx="18.634" cy="23.073" r=".635" style="fill:#fff" transform="translate(2.493 8.998) scale(1.32249)"/><circle cx="18.634" cy="23.073" r=".635" style="fill:#fff" transform="translate(6.624 9.009) scale(1.32249)"/><circle cx="18.634" cy="23.073" r=".635" style="fill:#fff" transform="translate(10.66 8.968) scale(1.32249)"/><circle cx="18.634" cy="23.073" r=".635" style="fill:#fff" transform="translate(14.794 8.998) scale(1.32249)"/><circle cx="18.634" cy="23.073" r=".635" style="fill:#fff" transform="translate(18.883 8.998) scale(1.32249)"/><circle cx="18.634" cy="23.073" r=".635" style="fill:#fff" transform="translate(23.015 9.009) scale(1.32249)"/><circle cx="18.634" cy="23.073" r=".635" style="fill:#fff" transform="translate(27.063 9.026) scale(1.32249)"/><circle cx="18.634" cy="23.073" r=".635" style="fill:#fff" transform="translate(31.099 8.985) scale(1.32249)"/><circle cx="18.634" cy="23.073" r=".635" style="fill:#fff" transform="translate(35.233 9.015) scale(1.32249)"/><circle cx="18.634" cy="23.073" r=".635" style="fill:#fff" transform="translate(39.322 9.015) scale(1.32249)"/><circle cx="18.634" cy="23.073" r=".635" style="fill:#fff" transform="translate(43.453 9.026) scale(1.32249)"/><circle cx="18.634" cy="23.073" r=".635" style="fill:#fff" transform="translate(-1.61 2.763) scale(1.32249)"/><circle cx="18.634" cy="23.073" r=".635" style="fill:#fff" transform="translate(2.479 2.763) scale(1.32249)"/><circle cx="18.634" cy="23.073" r=".635" style="fill:#fff" transform="translate(6.61 2.773) scale(1.32249)"/><circle cx="18.634" cy="23.073" r=".635" style="fill:#fff" transform="translate(10.646 2.732) scale(1.32249)"/><circle cx="18.634" cy="23.073" r=".635" style="fill:#fff" transform="translate(14.78 2.763) scale(1.32249)"/><circle cx="18.634" cy="23.073" r=".635" style="fill:#fff" transform="translate(18.87 2.763) scale(1.32249)"/><circle cx="18.634" cy="23.073" r=".635" style="fill:#fff" transform="translate(23 2.773) scale(1.32249)"/><circle cx="18.634" cy="23.073" r=".635" style="fill:#fff" transform="translate(27.049 2.79) scale(1.32249)"/><circle cx="18.634" cy="23.073" r=".635" style="fill:#fff" transform="translate(31.085 2.75) scale(1.32249)"/><circle cx="18.634" cy="23.073" r=".635" style="fill:#fff" transform="translate(35.219 2.78) scale(1.32249)"/><circle cx="18.634" cy="23.073" r=".635" style="fill:#fff" transform="translate(39.308 2.78) scale(1.32249)"/><circle cx="18.634" cy="23.073" r=".635" style="fill:#fff" transform="translate(43.44 2.79) scale(1.32249)"/><circle cx="18.634" cy="23.073" r=".635" style="fill:#fff" transform="translate(-3.826 17.891) scale(1.32249)"/><circle cx="18.634" cy="23.073" r=".635" style="fill:#fff" transform="translate(.308 17.921) scale(1.32249)"/><circle cx="18.634" cy="23.073" r=".635" style="fill:#fff" transform="translate(4.397 17.921) scale(1.32249)"/><circle cx="18.634" cy="23.073" r=".635" style="fill:#fff" transform="translate(8.528 17.932) scale(1.32249)"/><circle cx="18.634" cy="23.073" r=".635" style="fill:#fff" transform="translate(12.565 17.891) scale(1.32249)"/><circle cx="18.634" cy="23.073" r=".635" style="fill:#fff" transform="translate(16.698 17.921) scale(1.32249)"/><circle cx="18.634" cy="23.073" r=".635" style="fill:#fff" transform="translate(20.788 17.921) scale(1.32249)"/><circle cx="18.634" cy="23.073" r=".635" style="fill:#fff" transform="translate(24.919 17.932) scale(1.32249)"/><circle cx="18.634" cy="23.073" r=".635" style="fill:#fff" transform="translate(28.967 17.95) scale(1.32249)"/><circle cx="18.634" cy="23.073" r=".635" style="fill:#fff" transform="translate(33.003 17.908) scale(1.32249)"/><circle cx="18.634" cy="23.073" r=".635" style="fill:#fff" transform="translate(37.137 17.938) scale(1.32249)"/><circle cx="18.634" cy="23.073" r=".635" style="fill:#fff" transform="translate(41.226 17.938) scale(1.32249)"/><circle cx="18.634" cy="23.073" r=".635" style="fill:#fff" transform="translate(45.358 17.95) scale(1.32249)"/><circle cx="18.634" cy="23.073" r=".635" style="fill:#fff" transform="translate(-3.855 24.03) scale(1.32249)"/><circle cx="18.634" cy="23.073" r=".635" style="fill:#fff" transform="translate(.279 24.06) scale(1.32249)"/><circle cx="18.634" cy="23.073" r=".635" style="fill:#fff" transform="translate(4.368 24.06) scale(1.32249)"/><circle cx="18.634" cy="23.073" r=".635" style="fill:#fff" transform="translate(8.5 24.071) scale(1.32249)"/><circle cx="18.634" cy="23.073" r=".635" style="fill:#fff" transform="translate(12.536 24.03) scale(1.32249)"/><circle cx="18.634" cy="23.073" r=".635" style="fill:#fff" transform="translate(16.67 24.06) scale(1.32249)"/><circle cx="18.634" cy="23.073" r=".635" style="fill:#fff" transform="translate(20.759 24.06) scale(1.32249)"/><circle cx="18.634" cy="23.073" r=".635" style="fill:#fff" transform="translate(24.89 24.071) scale(1.32249)"/><circle cx="18.634" cy="23.073" r=".635" style="fill:#fff" transform="translate(28.938 24.089) scale(1.32249)"/><circle cx="18.634" cy="23.073" r=".635" style="fill:#fff" transform="translate(32.974 24.047) scale(1.32249)"/><circle cx="18.634" cy="23.073" r=".635" style="fill:#fff" transform="translate(37.108 24.078) scale(1.32249)"/><circle cx="18.634" cy="23.073" r=".635" style="fill:#fff" transform="translate(41.197 24.078) scale(1.32249)"/><circle cx="18.634" cy="23.073" r=".635" style="fill:#fff" transform="translate(45.329 24.089) scale(1.32249)"/><circle cx="18.634" cy="23.073" r=".635" style="fill:#fff" transform="translate(-1.707 21.05) scale(1.32249)"/><circle cx="18.634" cy="23.073" r=".635" style="fill:#fff" transform="translate(2.382 21.05) scale(1.32249)"/><circle cx="18.634" cy="23.073" r=".635" style="fill:#fff" transform="translate(6.514 21.062) scale(1.32249)"/><circle cx="18.634" cy="23.073" r=".635" style="fill:#fff" transform="translate(10.55 21.02) scale(1.32249)"/><circle cx="18.634" cy="23.073" r=".635" style="fill:#fff" transform="translate(14.683 21.05) scale(1.32249)"/><circle cx="18.634" cy="23.073" r=".635" style="fill:#fff" transform="translate(18.773 21.05) scale(1.32249)"/><circle cx="18.634" cy="23.073" r=".635" style="fill:#fff" transform="translate(22.904 21.062) scale(1.32249)"/><circle cx="18.634" cy="23.073" r=".635" style="fill:#fff" transform="translate(26.952 21.079) scale(1.32249)"/><circle cx="18.634" cy="23.073" r=".635" style="fill:#fff" transform="translate(30.988 21.038) scale(1.32249)"/><circle cx="18.634" cy="23.073" r=".635" style="fill:#fff" transform="translate(35.122 21.068) scale(1.32249)"/><circle cx="18.634" cy="23.073" r=".635" style="fill:#fff" transform="translate(39.211 21.068) scale(1.32249)"/><circle cx="18.634" cy="23.073" r=".635" style="fill:#fff" transform="translate(43.343 21.079) scale(1.32249)"/><circle cx="18.634" cy="23.073" r=".635" style="fill:#fff" transform="translate(-1.709 14.991) scale(1.32249)"/><circle cx="18.634" cy="23.073" r=".635" style="fill:#fff" transform="translate(2.38 14.991) scale(1.32249)"/><circle cx="18.634" cy="23.073" r=".635" style="fill:#fff" transform="translate(6.512 15.002) scale(1.32249)"/><circle cx="18.634" cy="23.073" r=".635" style="fill:#fff" transform="translate(10.548 14.961) scale(1.32249)"/><circle cx="18.634" cy="23.073" r=".635" style="fill:#fff" transform="translate(14.682 14.991) scale(1.32249)"/><circle cx="18.634" cy="23.073" r=".635" style="fill:#fff" transform="translate(18.771 14.991) scale(1.32249)"/><circle cx="18.634" cy="23.073" r=".635" style="fill:#fff" transform="translate(22.903 15.002) scale(1.32249)"/><circle cx="18.634" cy="23.073" r=".635" style="fill:#fff" transform="translate(26.95 15.02) scale(1.32249)"/><circle cx="18.634" cy="23.073" r=".635" style="fill:#fff" transform="translate(30.987 14.978) scale(1.32249)"/><circle cx="18.634" cy="23.073" r=".635" style="fill:#fff" transform="translate(35.12 15.009) scale(1.32249)"/><circle cx="18.634" cy="23.073" r=".635" style="fill:#fff" transform="translate(39.21 15.009) scale(1.32249)"/><circle cx="18.634" cy="23.073" r=".635" style="fill:#fff" transform="translate(43.341 15.02) scale(1.32249)"/><circle cx="18.634" cy="23.073" r=".635" style="fill:#fff" transform="translate(-3.715 30.2) scale(1.32249)"/><circle cx="18.634" cy="23.073" r=".635" style="fill:#fff" transform="translate(.418 30.23) scale(1.32249)"/><circle cx="18.634" cy="23.073" r=".635" style="fill:#fff" transform="translate(4.508 30.23) scale(1.32249)"/><circle cx="18.634" cy="23.073" r=".635" style="fill:#fff" transform="translate(8.639 30.24) scale(1.32249)"/><circle cx="18.634" cy="23.073" r=".635" style="fill:#fff" transform="translate(12.675 30.2) scale(1.32249)"/><circle cx="18.634" cy="23.073" r=".635" style="fill:#fff" transform="translate(16.809 30.23) scale(1.32249)"/><circle cx="18.634" cy="23.073" r=".635" style="fill:#fff" transform="translate(20.898 30.23) scale(1.32249)"/><circle cx="18.634" cy="23.073" r=".635" style="fill:#fff" transform="translate(25.03 30.24) scale(1.32249)"/><circle cx="18.634" cy="23.073" r=".635" style="fill:#fff" transform="translate(29.078 30.258) scale(1.32249)"/><circle cx="18.634" cy="23.073" r=".635" style="fill:#fff" transform="translate(33.114 30.217) scale(1.32249)"/><circle cx="18.634" cy="23.073" r=".635" style="fill:#fff" transform="translate(37.247 30.247) scale(1.32249)"/><circle cx="18.634" cy="23.073" r=".635" style="fill:#fff" transform="translate(41.337 30.247) scale(1.32249)"/><circle cx="18.634" cy="23.073" r=".635" style="fill:#fff" transform="translate(45.468 30.258) scale(1.32249)"/><circle cx="18.634" cy="23.073" r=".635" style="fill:#fff" transform="translate(-3.745 36.339) scale(1.32249)"/><circle cx="18.634" cy="23.073" r=".635" style="fill:#fff" transform="translate(.39 36.369) scale(1.32249)"/><circle cx="18.634" cy="23.073" r=".635" style="fill:#fff" transform="translate(4.479 36.369) scale(1.32249)"/><circle cx="18.634" cy="23.073" r=".635" style="fill:#fff" transform="translate(8.61 36.38) scale(1.32249)"/><circle cx="18.634" cy="23.073" r=".635" style="fill:#fff" transform="translate(12.646 36.339) scale(1.32249)"/><circle cx="18.634" cy="23.073" r=".635" style="fill:#fff" transform="translate(16.78 36.369) scale(1.32249)"/><circle cx="18.634" cy="23.073" r=".635" style="fill:#fff" transform="translate(20.87 36.369) scale(1.32249)"/><circle cx="18.634" cy="23.073" r=".635" style="fill:#fff" transform="translate(25 36.38) scale(1.32249)"/><circle cx="18.634" cy="23.073" r=".635" style="fill:#fff" transform="translate(29.049 36.397) scale(1.32249)"/><circle cx="18.634" cy="23.073" r=".635" style="fill:#fff" transform="translate(33.085 36.356) scale(1.32249)"/><circle cx="18.634" cy="23.073" r=".635" style="fill:#fff" transform="translate(37.218 36.386) scale(1.32249)"/><circle cx="18.634" cy="23.073" r=".635" style="fill:#fff" transform="translate(41.308 36.386) scale(1.32249)"/><circle cx="18.634" cy="23.073" r=".635" style="fill:#fff" transform="translate(45.44 36.397) scale(1.32249)"/><circle cx="18.634" cy="23.073" r=".635" style="fill:#fff" transform="translate(-1.597 33.36) scale(1.32249)"/><circle cx="18.634" cy="23.073" r=".635" style="fill:#fff" transform="translate(2.493 33.36) scale(1.32249)"/><circle cx="18.634" cy="23.073" r=".635" style="fill:#fff" transform="translate(6.624 33.37) scale(1.32249)"/><circle cx="18.634" cy="23.073" r=".635" style="fill:#fff" transform="translate(10.66 33.329) scale(1.32249)"/><circle cx="18.634" cy="23.073" r=".635" style="fill:#fff" transform="translate(14.794 33.36) scale(1.32249)"/><circle cx="18.634" cy="23.073" r=".635" style="fill:#fff" transform="translate(18.883 33.36) scale(1.32249)"/><circle cx="18.634" cy="23.073" r=".635" style="fill:#fff" transform="translate(23.015 33.37) scale(1.32249)"/><circle cx="18.634" cy="23.073" r=".635" style="fill:#fff" transform="translate(27.063 33.387) scale(1.32249)"/><circle cx="18.634" cy="23.073" r=".635" style="fill:#fff" transform="translate(31.099 33.346) scale(1.32249)"/><circle cx="18.634" cy="23.073" r=".635" style="fill:#fff" transform="translate(35.233 33.376) scale(1.32249)"/><circle cx="18.634" cy="23.073" r=".635" style="fill:#fff" transform="translate(39.322 33.376) scale(1.32249)"/><circle cx="18.634" cy="23.073" r=".635" style="fill:#fff" transform="translate(43.453 33.387) scale(1.32249)"/><circle cx="18.634" cy="23.073" r=".635" style="fill:#fff" transform="translate(-1.61 27.124) scale(1.32249)"/><circle cx="18.634" cy="23.073" r=".635" style="fill:#fff" transform="translate(2.479 27.124) scale(1.32249)"/><circle cx="18.634" cy="23.073" r=".635" style="fill:#fff" transform="translate(6.61 27.134) scale(1.32249)"/><circle cx="18.634" cy="23.073" r=".635" style="fill:#fff" transform="translate(10.646 27.093) scale(1.32249)"/><circle cx="18.634" cy="23.073" r=".635" style="fill:#fff" transform="translate(14.78 27.124) scale(1.32249)"/><circle cx="18.634" cy="23.073" r=".635" style="fill:#fff" transform="translate(18.87 27.124) scale(1.32249)"/><circle cx="18.634" cy="23.073" r=".635" style="fill:#fff" transform="translate(23 27.134) scale(1.32249)"/><circle cx="18.634" cy="23.073" r=".635" style="fill:#fff" transform="translate(27.049 27.152) scale(1.32249)"/><circle cx="18.634" cy="23.073" r=".635" style="fill:#fff" transform="translate(31.085 27.11) scale(1.32249)"/><circle cx="18.634" cy="23.073" r=".635" style="fill:#fff" transform="translate(35.219 27.14) scale(1.32249)"/><circle cx="18.634" cy="23.073" r=".635" style="fill:#fff" transform="translate(39.308 27.14) scale(1.32249)"/><circle cx="18.634" cy="23.073" r=".635" style="fill:#fff" transform="translate(43.44 27.152) scale(1.32249)"/><circle cx="18.634" cy="23.073" r=".635" style="fill:#fff" transform="translate(-3.855 42.855) scale(1.32249)"/><circle cx="18.634" cy="23.073" r=".635" style="fill:#fff" transform="translate(.279 42.885) scale(1.32249)"/><circle cx="18.634" cy="23.073" r=".635" style="fill:#fff" transform="translate(4.368 42.885) scale(1.32249)"/><circle cx="18.634" cy="23.073" r=".635" style="fill:#fff" transform="translate(8.5 42.896) scale(1.32249)"/><circle cx="18.634" cy="23.073" r=".635" style="fill:#fff" transform="translate(12.536 42.855) scale(1.32249)"/><circle cx="18.634" cy="23.073" r=".635" style="fill:#fff" transform="translate(16.67 42.885) scale(1.32249)"/><circle cx="18.634" cy="23.073" r=".635" style="fill:#fff" transform="translate(20.759 42.885) scale(1.32249)"/><circle cx="18.634" cy="23.073" r=".635" style="fill:#fff" transform="translate(24.89 42.896) scale(1.32249)"/><circle cx="18.634" cy="23.073" r=".635" style="fill:#fff" transform="translate(28.938 42.913) scale(1.32249)"/><circle cx="18.634" cy="23.073" r=".635" style="fill:#fff" transform="translate(32.974 42.872) scale(1.32249)"/><circle cx="18.634" cy="23.073" r=".635" style="fill:#fff" transform="translate(37.108 42.902) scale(1.32249)"/><circle cx="18.634" cy="23.073" r=".635" style="fill:#fff" transform="translate(41.197 42.902) scale(1.32249)"/><circle cx="18.634" cy="23.073" r=".635" style="fill:#fff" transform="translate(45.329 42.913) scale(1.32249)"/><circle cx="18.634" cy="23.073" r=".635" style="fill:#fff" transform="translate(-1.707 39.875) scale(1.32249)"/><circle cx="18.634" cy="23.073" r=".635" style="fill:#fff" transform="translate(2.382 39.875) scale(1.32249)"/><circle cx="18.634" cy="23.073" r=".635" style="fill:#fff" transform="translate(6.514 39.886) scale(1.32249)"/><circle cx="18.634" cy="23.073" r=".635" style="fill:#fff" transform="translate(10.55 39.845) scale(1.32249)"/><circle cx="18.634" cy="23.073" r=".635" style="fill:#fff" transform="translate(14.683 39.875) scale(1.32249)"/><circle cx="18.634" cy="23.073" r=".635" style="fill:#fff" transform="translate(18.773 39.875) scale(1.32249)"/><circle cx="18.634" cy="23.073" r=".635" style="fill:#fff" transform="translate(22.904 39.886) scale(1.32249)"/><circle cx="18.634" cy="23.073" r=".635" style="fill:#fff" transform="translate(26.952 39.903) scale(1.32249)"/><circle cx="18.634" cy="23.073" r=".635" style="fill:#fff" transform="translate(30.988 39.862) scale(1.32249)"/><circle cx="18.634" cy="23.073" r=".635" style="fill:#fff" transform="translate(35.122 39.892) scale(1.32249)"/><circle cx="18.634" cy="23.073" r=".635" style="fill:#fff" transform="translate(39.211 39.892) scale(1.32249)"/><circle cx="18.634" cy="23.073" r=".635" style="fill:#fff" transform="translate(43.343 39.903) scale(1.32249)"/><circle cx="18.634" cy="23.073" r=".635" style="fill:#fff" transform="translate(-3.715 49.024) scale(1.32249)"/><circle cx="18.634" cy="23.073" r=".635" style="fill:#fff" transform="translate(.418 49.054) scale(1.32249)"/><circle cx="18.634" cy="23.073" r=".635" style="fill:#fff" transform="translate(4.508 49.054) scale(1.32249)"/><circle cx="18.634" cy="23.073" r=".635" style="fill:#fff" transform="translate(8.639 49.065) scale(1.32249)"/><circle cx="18.634" cy="23.073" r=".635" style="fill:#fff" transform="translate(12.675 49.024) scale(1.32249)"/><circle cx="18.634" cy="23.073" r=".635" style="fill:#fff" transform="translate(16.809 49.054) scale(1.32249)"/><circle cx="18.634" cy="23.073" r=".635" style="fill:#fff" transform="translate(20.898 49.054) scale(1.32249)"/><circle cx="18.634" cy="23.073" r=".635" style="fill:#fff" transform="translate(25.03 49.065) scale(1.32249)"/><circle cx="18.634" cy="23.073" r=".635" style="fill:#fff" transform="translate(29.078 49.082) scale(1.32249)"/><circle cx="18.634" cy="23.073" r=".635" style="fill:#fff" transform="translate(33.114 49.041) scale(1.32249)"/><circle cx="18.634" cy="23.073" r=".635" style="fill:#fff" transform="translate(37.247 49.071) scale(1.32249)"/><circle cx="18.634" cy="23.073" r=".635" style="fill:#fff" transform="translate(41.337 49.071) scale(1.32249)"/><circle cx="18.634" cy="23.073" r=".635" style="fill:#fff" transform="translate(45.468 49.082) scale(1.32249)"/><circle cx="18.634" cy="23.073" r=".635" style="fill:#fff" transform="translate(-3.745 55.163) scale(1.32249)"/><circle cx="18.634" cy="23.073" r=".635" style="fill:#fff" transform="translate(.39 55.193) scale(1.32249)"/><circle cx="18.634" cy="23.073" r=".635" style="fill:#fff" transform="translate(4.479 55.193) scale(1.32249)"/><circle cx="18.634" cy="23.073" r=".635" style="fill:#fff" transform="translate(8.61 55.204) scale(1.32249)"/><circle cx="18.634" cy="23.073" r=".635" style="fill:#fff" transform="translate(12.646 55.163) scale(1.32249)"/><circle cx="18.634" cy="23.073" r=".635" style="fill:#fff" transform="translate(16.78 55.193) scale(1.32249)"/><circle cx="18.634" cy="23.073" r=".635" style="fill:#fff" transform="translate(20.87 55.193) scale(1.32249)"/><circle cx="18.634" cy="23.073" r=".635" style="fill:#fff" transform="translate(25 55.204) scale(1.32249)"/><circle cx="18.634" cy="23.073" r=".635" style="fill:#fff" transform="translate(29.049 55.222) scale(1.32249)"/><circle cx="18.634" cy="23.073" r=".635" style="fill:#fff" transform="translate(33.085 55.18) scale(1.32249)"/><circle cx="18.634" cy="23.073" r=".635" style="fill:#fff" transform="translate(37.218 55.21) scale(1.32249)"/><circle cx="18.634" cy="23.073" r=".635" style="fill:#fff" transform="translate(41.308 55.21) scale(1.32249)"/><circle cx="18.634" cy="23.073" r=".635" style="fill:#fff" transform="translate(45.44 55.222) scale(1.32249)"/><circle cx="18.634" cy="23.073" r=".635" style="fill:#fff" transform="translate(-1.597 52.184) scale(1.32249)"/><circle cx="18.634" cy="23.073" r=".635" style="fill:#fff" transform="translate(2.493 52.184) scale(1.32249)"/><circle cx="18.634" cy="23.073" r=".635" style="fill:#fff" transform="translate(6.624 52.195) scale(1.32249)"/><circle cx="18.634" cy="23.073" r=".635" style="fill:#fff" transform="translate(10.66 52.153) scale(1.32249)"/><circle cx="18.634" cy="23.073" r=".635" style="fill:#fff" transform="translate(14.794 52.184) scale(1.32249)"/><circle cx="18.634" cy="23.073" r=".635" style="fill:#fff" transform="translate(18.883 52.184) scale(1.32249)"/><circle cx="18.634" cy="23.073" r=".635" style="fill:#fff" transform="translate(23.015 52.195) scale(1.32249)"/><circle cx="18.634" cy="23.073" r=".635" style="fill:#fff" transform="translate(27.063 52.212) scale(1.32249)"/><circle cx="18.634" cy="23.073" r=".635" style="fill:#fff" transform="translate(31.099 52.17) scale(1.32249)"/><circle cx="18.634" cy="23.073" r=".635" style="fill:#fff" transform="translate(35.233 52.2) scale(1.32249)"/><circle cx="18.634" cy="23.073" r=".635" style="fill:#fff" transform="translate(39.322 52.2) scale(1.32249)"/><circle cx="18.634" cy="23.073" r=".635" style="fill:#fff" transform="translate(43.453 52.212) scale(1.32249)"/><circle cx="18.634" cy="23.073" r=".635" style="fill:#fff" transform="translate(-1.61 45.948) scale(1.32249)"/><circle cx="18.634" cy="23.073" r=".635" style="fill:#fff" transform="translate(2.479 45.948) scale(1.32249)"/><circle cx="18.634" cy="23.073" r=".635" style="fill:#fff" transform="translate(6.61 45.959) scale(1.32249)"/><circle cx="18.634" cy="23.073" r=".635" style="fill:#fff" transform="translate(10.646 45.918) scale(1.32249)"/><circle cx="18.634" cy="23.073" r=".635" style="fill:#fff" transform="translate(14.78 45.948) scale(1.32249)"/><circle cx="18.634" cy="23.073" r=".635" style="fill:#fff" transform="translate(18.87 45.948) scale(1.32249)"/><circle cx="18.634" cy="23.073" r=".635" style="fill:#fff" transform="translate(23 45.959) scale(1.32249)"/><circle cx="18.634" cy="23.073" r=".635" style="fill:#fff" transform="translate(27.049 45.976) scale(1.32249)"/><circle cx="18.634" cy="23.073" r=".635" style="fill:#fff" transform="translate(31.085 45.935) scale(1.32249)"/><circle cx="18.634" cy="23.073" r=".635" style="fill:#fff" transform="translate(35.219 45.965) scale(1.32249)"/><circle cx="18.634" cy="23.073" r=".635" style="fill:#fff" transform="translate(39.308 45.965) scale(1.32249)"/><circle cx="18.634" cy="23.073" r=".635" style="fill:#fff" transform="translate(43.44 45.976) scale(1.32249)"/></svg>