<svg viewBox="0 0 100 100" xmlns="http://www.w3.org/2000/svg" xml:space="preserve" style="fill-rule:evenodd;clip-rule:evenodd;stroke-linejoin:round;stroke-miterlimit:2"><g transform="translate(.574 .437) scale(3.08766)"><path d="M26.862 16.235c0-6.107-4.958-11.059-11.075-11.059-6.116 0-11.074 4.952-11.074 11.059 0 6.108 4.958 11.059 11.074 11.059 6.117 0 11.075-4.951 11.075-11.059Zm-8.306 0a2.766 2.766 0 0 0-2.769-2.764 2.766 2.766 0 1 0 0 5.529 2.767 2.767 0 0 0 2.769-2.765Z" style="fill:#60b49f" id="Oval-1"/><path d="M32.016 32H0V.104h15.952v2.89C8.739 3.024 2.9 8.859 2.9 16.052V29.11h13.108c7.239 0 13.107-5.846 13.107-13.058 0-.018 2.9-.055 2.9-.055L32.016 32Z" style="fill:#60b49f" id="Oval-3-copy"/></g></svg>