<svg width="139" height="32" xmlns="http://www.w3.org/2000/svg"><g id="Page-1" stroke="none" stroke-width="1" fill="none" fill-rule="evenodd"><g id="logo-dark"><path d="M26.862 16.235c0-6.107-4.958-11.059-11.075-11.059-6.116 0-11.074 4.952-11.074 11.06 0 6.107 4.958 11.058 11.074 11.058 6.117 0 11.075-4.951 11.075-11.059Zm-8.306 0a2.767 2.767 0 0 0-2.769-2.764 2.767 2.767 0 0 0-2.768 2.764A2.767 2.767 0 0 0 15.787 19a2.767 2.767 0 0 0 2.77-2.765Z" id="Oval-1" fill="#1388B7"/><path d="M32.016 32H0V.104h15.952v2.89C8.739 3.024 2.9 8.859 2.9 16.052V29.11h13.108c7.239 0 13.107-5.846 13.107-13.058 0-.018 2.9-.055 2.9-.055V32Z" id="Oval-3-copy" fill="#1388B7"/><path d="M49.22 7.853c1.14 0 2.14.163 3.001.488.86.326 1.588.85 2.181 1.57.593.722 1.041 1.658 1.344 2.81.302 1.152.453 2.554.453 4.205 0 1.652-.15 3.054-.453 4.206-.303 1.151-.75 2.088-1.344 2.809a5.134 5.134 0 0 1-2.181 1.57c-.86.326-1.861.489-3.001.489s-2.14-.163-3.002-.489a5.134 5.134 0 0 1-2.18-1.57c-.594-.721-1.042-1.658-1.344-2.81-.303-1.151-.454-2.553-.454-4.205 0-1.651.151-3.053.454-4.205.302-1.152.75-2.088 1.343-2.81a5.134 5.134 0 0 1 2.181-1.57c.861-.325 1.862-.488 3.002-.488Zm0 2.268c-.396 0-.762.099-1.1.297-.337.198-.634.552-.89 1.064-.255.512-.453 1.21-.593 2.094-.14.884-.21 2.001-.21 3.35 0 1.35.07 2.467.21 3.35.14.885.338 1.583.593 2.095.256.511.553.866.89 1.064.338.198.704.297 1.1.297.395 0 .762-.1 1.099-.297.337-.198.634-.553.89-1.064.256-.512.454-1.21.593-2.094.14-.884.21-2.001.21-3.35 0-1.35-.07-2.467-.21-3.35-.14-.885-.337-1.583-.593-2.095-.256-.512-.553-.866-.89-1.064a2.136 2.136 0 0 0-1.1-.297Zm12.935 15.53-5.06-17.45h4.187l3.42 13.088h.14l3.42-13.087h4.188L67.39 25.65h-5.235Zm24.451-7.503h-9.073c0 2 .354 3.402 1.064 4.205.71.803 1.809 1.204 3.298 1.204h3.839v1.745c-.535.186-1.204.349-2.007.489-.803.14-1.646.209-2.53.209-1.35 0-2.519-.163-3.507-.489-.99-.325-1.803-.849-2.443-1.57-.64-.721-1.117-1.658-1.431-2.81-.314-1.151-.471-2.553-.471-4.205 0-1.651.151-3.053.453-4.205.303-1.152.733-2.088 1.292-2.81a4.827 4.827 0 0 1 2.076-1.57c.826-.325 1.763-.488 2.81-.488 1.046 0 1.983.163 2.809.488.826.326 1.518.85 2.076 1.57.559.722.99 1.658 1.292 2.81.302 1.152.453 2.554.453 4.205v1.222Zm-4.188-2.443c0-1.14-.064-2.07-.192-2.792-.128-.721-.296-1.291-.506-1.71-.209-.419-.465-.704-.767-.855a2.155 2.155 0 0 0-.978-.227c-.349 0-.674.076-.977.227-.302.151-.558.436-.767.855-.21.419-.379.989-.506 1.71-.128.721-.192 1.652-.192 2.792h4.885Zm17.123-7.503v2.966h-3.839c-.442 0-.826.07-1.151.21-.326.14-.582.302-.768.488v13.785h-4.188V8.201h2.966l.524 1.397h.174c.373-.35.873-.67 1.501-.96.628-.29 1.466-.436 2.513-.436h2.268Zm6.71 17.449-5.06-17.45h4.187l3.42 13.088h.14l3.42-13.087h4.188l-5.06 17.449h-5.235Zm16.774 0h-4.188V8.201h4.188v17.45Zm0-23.731v4.188h-4.188V1.92h4.188Zm7.002 10.47c0 .604.203 1.099.61 1.483.408.384.914.721 1.519 1.012.604.29 1.262.576 1.971.855.71.279 1.367.622 1.972 1.03a5.29 5.29 0 0 1 1.518 1.57c.407.64.61 1.448.61 2.425 0 1.047-.15 1.908-.453 2.583a3.597 3.597 0 0 1-1.396 1.605c-.628.396-1.413.669-2.355.82-.943.151-2.042.227-3.298.227-.884 0-1.728-.07-2.53-.21-.803-.139-1.472-.302-2.007-.488v-1.745h3.839c1.326 0 2.326-.186 3.001-.558.675-.373 1.012-1 1.012-1.885 0-.605-.203-1.1-.61-1.483-.408-.384-.914-.721-1.519-1.012a29.405 29.405 0 0 0-1.972-.855c-.71-.28-1.366-.622-1.971-1.03a5.368 5.368 0 0 1-1.518-1.553c-.408-.628-.611-1.442-.611-2.442 0-.954.151-1.745.454-2.374a3.642 3.642 0 0 1 1.308-1.5c.57-.372 1.28-.634 2.13-.785.848-.152 1.82-.227 2.913-.227.884 0 1.728.07 2.53.21.803.139 1.472.302 2.007.488v1.745h-3.839c-.977 0-1.774.174-2.39.523-.617.35-.925.873-.925 1.57Z" id="overvis" fill="#404040"/></g></g></svg>