<svg viewBox="0 0 100 100" xmlns="http://www.w3.org/2000/svg" xml:space="preserve" style="fill-rule:evenodd;clip-rule:evenodd;stroke-linejoin:round;stroke-miterlimit:2"><path d="m7.792.312-1.533 2.3a.252.252 0 0 0-.042.138c0 .137.113.25.25.25H7.5v7.319a2.493 2.493 0 0 0-.515-.298L5.909 9.56A1.502 1.502 0 0 1 5 8.18v-.266c.598-.211 1-.78 1-1.414C6 5.677 5.323 5 4.5 5S3 5.677 3 6.5c0 .634.402 1.203 1 1.414v.266c0 .998.598 1.905 1.515 2.298l1.076.461c.468.201.803.627.888 1.129A2.006 2.006 0 0 0 6 14a2.01 2.01 0 0 0 2.001 2.001A2.01 2.01 0 0 0 10.002 14c0-.91-.621-1.711-1.502-1.938v-.902c0-.538.289-1.036.756-1.303l1.484-.848A2.503 2.503 0 0 0 11.995 7h.755c.137 0 .25-.113.25-.25v-2.5a.251.251 0 0 0-.25-.25h-2.5a.251.251 0 0 0-.25.25v2.5c0 .138.112.25.25.25h.741c-.051.478-.33.903-.747 1.142L8.76 8.99a2.47 2.47 0 0 0-.26.17V3h1.033a.251.251 0 0 0 .208-.389L8.208.312a.25.25 0 0 0-.416 0Z" style="fill:#60b49f;fill-rule:nonzero" transform="matrix(-4.18228 0 0 -4.18228 82.434 85.793)"/><path d="M2 0C.903 0 0 .903 0 2v12c0 1.097.903 2 2 2h12c1.097 0 2-.903 2-2V2c0-1.097-.903-2-2-2H2ZM1 2c0-.549.451-1 1-1h12c.549 0 1 .451 1 1v12c0 .549-.451 1-1 1H2c-.549 0-1-.451-1-1V2Z" style="fill:#60b49f;fill-rule:nonzero" transform="translate(.774 .77) scale(6.16908)"/></svg>