<svg viewBox="0 0 100 100" xmlns="http://www.w3.org/2000/svg" xml:space="preserve" style="fill-rule:evenodd;clip-rule:evenodd;stroke-linejoin:round;stroke-miterlimit:2"><path d="M2 0C.903 0 0 .903 0 2v12c0 1.097.903 2 2 2h12c1.097 0 2-.903 2-2V2c0-1.097-.903-2-2-2H2ZM1 2c0-.549.451-1 1-1h12c.549 0 1 .451 1 1v12c0 .549-.451 1-1 1H2c-.549 0-1-.451-1-1V2Z" style="fill:#60b49f;fill-rule:nonzero" transform="translate(.203 .323) scale(6.21212)"/><path d="M15.384 6.115a.485.485 0 0 0-.047-.736A12.447 12.447 0 0 0 8 3C5.259 3 2.723 3.882.663 5.379a.486.486 0 0 0-.048.736.52.52 0 0 0 .668.05A11.446 11.446 0 0 1 8 4c2.507 0 4.827.802 6.716 2.164.205.148.49.13.668-.049Z" style="fill:#60b49f;fill-rule:nonzero" transform="matrix(4.76692 0 0 4.76692 10.614 10.908)"/><path d="M13.229 8.271a.483.483 0 0 0-.063-.745A9.453 9.453 0 0 0 8 6c-1.905 0-3.68.56-5.166 1.526a.48.48 0 0 0-.063.745.526.526 0 0 0 .652.065A8.457 8.457 0 0 1 8 7a8.454 8.454 0 0 1 4.576 1.336c.206.132.48.108.653-.065Zm-2.183 2.183c.226-.226.185-.605-.1-.75A6.47 6.47 0 0 0 8 9c-1.06 0-2.062.254-2.946.704-.285.145-.326.524-.1.75l.015.015c.16.16.407.19.611.09A5.484 5.484 0 0 1 8 10c.868 0 1.69.201 2.42.56.203.1.45.07.61-.091l.016-.015ZM9.06 12.44c.196-.196.198-.52-.04-.66a1.989 1.989 0 0 0-2.04 0c-.238.14-.236.464-.04.66l.706.706a.502.502 0 0 0 .707 0l.707-.707v.001Z" style="fill:#60b49f;fill-rule:nonzero" transform="matrix(4.76692 0 0 4.76692 10.614 10.908)"/></svg>